<svg version="1.1" id="Layer_1" xmlns="http://www.w3.org/2000/svg" x="0" y="0" viewBox="372.5 -153.5 178.1 85.8" style="enable-background:new 372.5 -153.5 178.1 85.8" xml:space="preserve"><style>.st0{fill:#fff}</style><path class="st0" d="M415.8-122.5c0-12.3 4.5-20 9.9-20.8-5.4-6.7-14.4-10.2-22.7-10.2-9 0-17.2 3.9-22.8 10.2 5.3 1.1 7.2 5.5 7.2 12.5H381c0-4.1-.9-6.2-3.3-6.2-1.1 0-1.9.5-2.4 1.5-.1.2-.2.3-.2.5-.2.5-.3 1.1-.3 1.8 0 8.5 13.9 8.1 13.9 21.1 0 5.1-3.9 9.8-8.3 9.8 5.8 6.3 13.6 10.1 22.7 10.1 8.8 0 16.8-3.7 22.3-9.7-5.1-1.4-9.6-8.8-9.6-20.6zm-2.9 20.2h-7v-17.4h-7.6v17.4h-7v-40.2h7v16.2h7.6v-16.2h7v40.2z"/><path class="st0" d="M378.6-108.7c2 0 3.3-1.7 3.3-4.2 0-5.2-4.5-6.2-9.4-10.6-.1 8.9 2.7 14.8 6.1 14.8zM422.8-123.1c0-6.7 2-13.5 5.6-13.5 4.3 0 5.4 10.4 5.4 13.7 0 7.2-2.3 13.8-5.4 13.8-3.8 0-5.6-6.9-5.6-14zM492.7-141.9H463.2l-2.8 23h-.1l-3.2-23h-6.4l-3.4 23h-.1l-2.5-23h-6.5l5.2 39.1h6.3l3.5-24.8h.1l3.4 24.8h6.5l4.3-33h6v33h7.2v-33h6.5v33h7.1v-39.1zM497.8-141.9h9.5l3.2 20.1h.1l3.4-20.1h9.3v39.1h-6.4v-28.7h-.1l-4.8 28.7h-4l-4.8-28.7h-.1v28.7h-5.3zM526.8-141.9h16.1v6.1h-9v9.9h6.6v6.4h-6.6v10.7h9.4v6h-16.5zM545.4-105.4c0-.6.3-1.2.7-1.7.5-.4 1.1-.7 1.7-.7.6 0 1.3.3 1.7.7.4.5.7 1.1.7 1.7 0 1.3-1.1 2.4-2.4 2.4-.6 0-1.3-.2-1.7-.7-.4-.4-.7-1-.7-1.7zm.4 2c.5.5 1.2.8 2 .8 1.6 0 2.8-1.3 2.8-2.8 0-.7-.3-1.4-.8-2-.5-.5-1.3-.8-2-.8-.8 0-1.5.3-2 .8s-.8 1.3-.8 2c0 .8.3 1.5.8 2z"/><path class="st0" d="M547.2-105.5v-1.1h.8c.2 0 .3 0 .4.1.2.1.2.3.2.4 0 .2-.1.3-.2.4-.1.2-.3.2-.5.2h-.7zm1.9 1.7-.6-1.5c.4-.1.6-.4.6-.8 0-.3-.1-.5-.3-.7s-.5-.2-.7-.2h-1.2v3.2h.4v-1.4h.9l.6 1.4h.3z"/></svg>