<?xml version="1.0" encoding="utf-8"?>
<!-- Generator: Adobe Illustrator 19.0.0, SVG Export Plug-In . SVG Version: 6.00 Build 0)  -->
<svg version="1.1" id="Layer_1" xmlns="http://www.w3.org/2000/svg" xmlns:xlink="http://www.w3.org/1999/xlink" x="0px" y="0px" viewBox="372.5 -153.5 178.1 85.8" style="enable-background:new 372.5 -153.5 178.1 85.8;" xml:space="preserve">
<style>
	.st0{fill:#FFFFFF;}
	.st1{fill:#FFFFFF;stroke:#000000;}

</style>
<g>
	<g>
		<g>
			<path class="st0" d="M415.8-122.5c0-12.3,4.5-20,9.9-20.8c-5.4-6.7-14.4-10.2-22.7-10.2c-9,0-17.2,3.9-22.8,10.2
				c5.3,1.1,7.2,5.5,7.2,12.5H381c0-4.1-0.9-6.2-3.3-6.2c-1.1,0-1.9,0.5-2.4,1.5c-0.1,0.2-0.2,0.3-0.2,0.5c-0.2,0.5-0.3,1.1-0.3,1.8
				c0,8.5,13.9,8.1,13.9,21.1c0,5.1-3.9,9.8-8.3,9.8c5.8,6.3,13.6,10.1,22.7,10.1c8.8,0,16.8-3.7,22.3-9.7
				C420.3-103.3,415.8-110.7,415.8-122.5L415.8-122.5z M412.9-102.3h-7v-17.4h-7.6v17.4h-7v-40.2h7v16.2h7.6v-16.2h7V-102.3
				L412.9-102.3z"></path>
			<path class="st0" d="M378.6-108.7c2,0,3.3-1.7,3.3-4.2c0-5.2-4.5-6.2-9.4-10.6C372.4-114.6,375.2-108.7,378.6-108.7L378.6-108.7z
				"></path>
			<path class="st0" d="M422.8-123.1c0-6.7,2-13.5,5.6-13.5c4.3,0,5.4,10.4,5.4,13.7c0,7.2-2.3,13.8-5.4,13.8
				C424.6-109.1,422.8-116,422.8-123.1L422.8-123.1z"></path>
			<polygon class="st0" points="492.7,-141.9 487.2,-141.9 468.3,-141.9 467.4,-141.9 463.2,-141.9 460.4,-118.9 460.3,-118.9 
				457.1,-141.9 450.7,-141.9 447.3,-118.9 447.2,-118.9 444.7,-141.9 438.2,-141.9 443.4,-102.8 449.7,-102.8 453.2,-127.6 
				453.3,-127.6 456.7,-102.8 463.2,-102.8 467.5,-135.8 473.5,-135.8 473.5,-102.8 480.7,-102.8 480.7,-135.8 487.2,-135.8 
				487.2,-102.8 494.3,-102.8 494.3,-141.9 			"></polygon>
			<polygon class="st0" points="497.8,-141.9 507.3,-141.9 510.5,-121.8 510.6,-121.8 514,-141.9 523.3,-141.9 523.3,-102.8 
				516.9,-102.8 516.9,-131.5 516.8,-131.5 512,-102.8 508,-102.8 503.2,-131.5 503.1,-131.5 503.1,-102.8 497.8,-102.8 			"></polygon>
			<polygon class="st0" points="526.8,-141.9 542.9,-141.9 542.9,-135.8 533.9,-135.8 533.9,-125.9 540.5,-125.9 540.5,-119.5 
				533.9,-119.5 533.9,-108.8 543.3,-108.8 543.3,-102.8 526.8,-102.8 			"></polygon>
		</g>
	</g>
	<g>
		<g>
			<path class="st0" d="M545.4-105.4c0-0.6,0.3-1.2,0.7-1.7c0.5-0.4,1.1-0.7,1.7-0.7c0.6,0,1.3,0.3,1.7,0.7c0.4,0.5,0.7,1.1,0.7,1.7
				c0,1.3-1.1,2.4-2.4,2.4c-0.6,0-1.3-0.2-1.7-0.7C545.7-104.1,545.4-104.7,545.4-105.4L545.4-105.4z M545.8-103.4
				c0.5,0.5,1.2,0.8,2,0.8c1.6,0,2.8-1.3,2.8-2.8c0-0.7-0.3-1.4-0.8-2c-0.5-0.5-1.3-0.8-2-0.8c-0.8,0-1.5,0.3-2,0.8s-0.8,1.3-0.8,2
				C545-104.6,545.3-103.9,545.8-103.4L545.8-103.4z"></path>
			<path class="st0" d="M547.2-105.5v-1.1h0.8c0.2,0,0.3,0,0.4,0.1c0.2,0.1,0.2,0.3,0.2,0.4c0,0.2-0.1,0.3-0.2,0.4
				c-0.1,0.2-0.3,0.2-0.5,0.2L547.2-105.5L547.2-105.5z M549.1-103.8l-0.6-1.5c0.4-0.1,0.6-0.4,0.6-0.8c0-0.3-0.1-0.5-0.3-0.7
				s-0.5-0.2-0.7-0.2h-1.2v3.2h0.4v-1.4h0.9l0.6,1.4H549.1L549.1-103.8z"></path>
		</g>
	</g>
</g>
<path class="st1" d="M455.9-67.7"></path>
</svg>
